<svg width="24" height="20" viewBox="0 0 24 20" fill="none" xmlns="http://www.w3.org/2000/svg">
<path d="M5.88986 11.1252L0.473738 9.4229C0.473738 9.4229 -0.165665 9.16937 0.0412008 8.58986C0.0788127 8.4631 0.172842 8.37255 0.436126 8.19146C1.63971 7.39464 22.646 0.114642 22.646 0.114642C22.646 0.114642 23.2478 -0.0845608 23.5863 0.0422053C23.7555 0.0965336 23.8496 0.168971 23.9436 0.404394C23.9812 0.494942 24 0.676036 24 0.85713C24 0.983897 23.9812 1.11066 23.9624 1.30987C23.8307 3.30191 20.0131 18.1335 20.0131 18.1335C20.0131 18.1335 19.7875 19.0028 18.96 19.039C18.6591 19.0571 18.3018 18.9847 17.8693 18.6225C16.2519 17.2824 10.6854 13.6786 9.46299 12.8999C9.38776 12.8637 9.36896 12.7913 9.36896 12.7369C9.35015 12.6464 9.44418 12.5558 9.44418 12.5558C9.44418 12.5558 19.0243 4.78158 19.2688 3.91232C19.2876 3.83989 19.2124 3.80367 19.1184 3.83989C18.479 4.07531 7.43195 10.3284 6.20956 11.089C6.09672 11.1614 5.88986 11.1252 5.88986 11.1252Z" fill="#163152"/>
</svg>
